<?xml version="1.0" encoding="utf-8"?>
<!-- Generator: Adobe Illustrator 24.1.3, SVG Export Plug-In . SVG Version: 6.00 Build 0)  -->
<svg version="1.1" id="Layer_1" xmlns="http://www.w3.org/2000/svg" xmlns:xlink="http://www.w3.org/1999/xlink" x="0px" y="0px"
	 viewBox="0 0 1080 595.9" style="enable-background:new 0 0 1080 595.9;" xml:space="preserve">
<style type="text/css">
	.st0{fill:#0BAF36;}
	.st1{fill:#021323;}
	.st2{fill:#FFFFFF;}
	.st3{fill:#939598;}
</style>
<g>
	<g>
		<path class="st1" d="M449,308c-2.3,7.5-5.6,14-9.9,19.5c-4.3,5.5-9.4,9.8-15.4,12.8c-6,3.1-12.8,4.6-20.2,4.6
			c-7.4,0-14.2-1.5-20.2-4.6c-6-3.1-11.2-7.3-15.4-12.8c-4.3-5.5-7.6-12-9.9-19.5c-2.3-7.5-3.4-15.7-3.4-24.6
			c0-8.9,1.2-17.1,3.4-24.6c2.3-7.5,5.6-14.1,9.9-19.5c4.3-5.5,9.4-9.7,15.4-12.8c6-3.1,12.7-4.6,20.2-4.6c7.4,0,14.2,1.5,20.2,4.6
			c6,3.1,11.2,7.3,15.4,12.8c4.3,5.5,7.6,12,9.9,19.5c2.3,7.6,3.4,15.8,3.4,24.6C452.4,292.3,451.2,300.5,449,308z M430.7,283.4
			c0-6.8-0.7-12.8-2-18.1c-1.3-5.3-3.2-9.8-5.6-13.5c-2.4-3.7-5.3-6.5-8.6-8.5c-3.3-1.9-7-2.9-11.1-2.9c-4,0-7.7,1-11.1,2.9
			c-3.3,1.9-6.2,4.7-8.6,8.5c-2.4,3.7-4.3,8.2-5.6,13.5c-1.3,5.3-2,11.4-2,18.1c0,6.7,0.7,12.7,2,18c1.3,5.3,3.2,9.8,5.6,13.5
			c2.4,3.7,5.3,6.5,8.6,8.5c3.3,2,7,3,11.1,3c4.1,0,7.7-1,11-3c3.3-2,6.1-4.8,8.5-8.5c2.4-3.7,4.3-8.2,5.6-13.5c1.3-5.3,2-11.3,2-18
			H430.7z"/>
		<path class="st1" d="M559.6,343.1v-54.9c0-7.3-0.9-12.5-2.7-15.5c-1.8-3-4.3-4.5-7.5-4.5c-4.3,0-7.9,2.3-10.8,6.9
			c-3,4.6-4.4,11.8-4.4,21.7v46.3h-19.5v-54.9c0-7.3-0.9-12.5-2.8-15.5c-1.9-3-4.4-4.5-7.6-4.5c-4.2,0-7.8,2.4-10.8,7.1
			c-3.1,4.7-4.6,12-4.6,21.8v46h-19.5v-90.2h19v6.9c4.9-5.9,11.3-8.9,19.2-8.9c5.3,0,9.7,1.3,13.4,3.8c3.7,2.5,6.5,5.9,8.5,10
			c2.5-3.8,5.7-7.1,9.7-9.8c3.9-2.7,8.5-4,13.8-4c4.5,0,8.4,0.9,11.7,2.5c3.3,1.7,6,4.1,8.2,7.2c2.2,3.1,3.8,6.8,4.8,11.2
			c1,4.3,1.6,9.1,1.6,14.4v56.8H559.6z"/>
		<path class="st1" d="M661.9,334.3c-0.2,2.1-0.2,3.2-0.1,3.2v5.6h-16.6l-1.1-8.4c-3.3,3.6-6.9,6.2-10.8,7.8
			c-3.9,1.6-7.9,2.4-11.8,2.4c-9.4,0-16.8-2.5-22-7.6c-5.3-5.1-7.9-11.8-7.9-20.1c0-9.6,3-17,8.9-22.3c6-5.2,14.1-8.2,24.5-8.9
			c1.6-0.2,3.2-0.3,4.8-0.3c1.6,0,3.3,0,5.1,0h7.7v-0.7c0-6.3-1.3-10.8-3.8-13.4c-2.5-2.6-6.2-3.9-11-3.9c-2.3,0-4.8,0.2-7.6,0.7
			c-2.8,0.5-5.5,1.1-8.1,1.7c-2.6,0.7-5,1.3-7,2c-2,0.7-3.4,1.1-4,1.3l-3.8-14.8c0.5-0.2,1.7-0.7,3.6-1.6c1.9-0.8,4.2-1.7,7.1-2.6
			c2.9-0.9,6.2-1.8,9.9-2.5c3.7-0.7,7.7-1.1,11.8-1.1c11.6,0,19.9,3.1,24.9,9.2c5,6.1,7.5,15.4,7.5,27.8v38.8
			C662.1,329.6,662,332.1,661.9,334.3z M642.6,301.7l-5.7-0.3c-4.5-0.1-8.3,0.2-11.4,0.9c-3.1,0.7-5.7,1.8-7.6,3.1
			c-2,1.4-3.4,3-4.3,4.9c-0.9,1.9-1.3,4-1.3,6.2c0,3.2,1,5.9,3,8.1c2,2.2,4.9,3.4,8.6,3.4c2.7,0,5.3-0.6,7.5-1.8
			c2.3-1.2,4.3-2.8,5.9-4.9c1.6-2.1,2.9-4.5,3.9-7.3c0.9-2.8,1.4-5.8,1.4-9.1V301.7z"/>
		<path class="st1" d="M730.3,343.1L704,304.6l-3.9,4.3v34.2h-4.9H694h-13.5v-124H700v67.3l26.9-33.5h25.5l-33.7,37l36.3,53.2H730.3
			z"/>
		<path class="st1" d="M843.2,343.1h-17.7l-16.6-60.3L793,343.1h-17.7l-25.1-90.2H771l14.1,59l14.9-59h18.7l15.4,59.1l14.5-59.1
			h18.7L843.2,343.1z"/>
		<path class="st1" d="M944.8,334.3c-0.2,2.1-0.2,3.2-0.1,3.2v5.6h-16.6l-1.1-8.4c-3.3,3.6-6.9,6.2-10.8,7.8
			c-3.9,1.6-7.9,2.4-11.8,2.4c-9.4,0-16.8-2.5-22-7.6c-5.3-5.1-7.9-11.8-7.9-20.1c0-9.6,3-17,8.9-22.3c6-5.2,14.1-8.2,24.5-8.9
			c1.6-0.2,3.2-0.3,4.8-0.3c1.6,0,3.3,0,5.1,0h7.7v-0.7c0-6.3-1.3-10.8-3.8-13.4c-2.5-2.6-6.2-3.9-11-3.9c-2.3,0-4.8,0.2-7.6,0.7
			c-2.8,0.5-5.5,1.1-8.1,1.7c-2.6,0.7-5,1.3-7,2c-2,0.7-3.4,1.1-4,1.3l-3.8-14.8c0.5-0.2,1.7-0.7,3.6-1.6c1.9-0.8,4.2-1.7,7.1-2.6
			c2.9-0.9,6.2-1.8,9.9-2.5c3.7-0.7,7.7-1.1,11.8-1.1c11.6,0,19.9,3.1,24.9,9.2c5,6.1,7.5,15.4,7.5,27.8v38.8
			C945.1,329.6,945,332.1,944.8,334.3z M925.5,301.7l-5.7-0.3c-4.5-0.1-8.3,0.2-11.4,0.9c-3.1,0.7-5.7,1.8-7.6,3.1
			c-2,1.4-3.4,3-4.3,4.9c-0.9,1.9-1.3,4-1.3,6.2c0,3.2,1,5.9,3,8.1c2,2.2,4.9,3.4,8.6,3.4c2.7,0,5.3-0.6,7.5-1.8
			c2.3-1.2,4.3-2.8,5.9-4.9c1.6-2.1,2.9-4.5,3.9-7.3s1.4-5.8,1.4-9.1V301.7z"/>
	</g>
	<g>
		<path class="st1" d="M368.3,397.9v-30H383v3.6h-10.6v9.1H384v3.5h-11.6v10.4h12.5v3.5H368.3z"/>
		<path class="st1" d="M403.4,397.9l-0.3,0h-2.9v-14.1c0-1.7-0.3-3.1-1-4.1c-0.7-1-1.6-1.5-2.9-1.5c-1.6,0-3,0.8-4,2.3
			c-1,1.5-1.5,3.6-1.5,6.3v11.2h-0.5l-0.3,0H387v-22.3h3.6v3.9c0.7-1.6,1.6-2.7,2.8-3.4c1.1-0.7,2.4-1,3.8-1c2.3,0,4,0.8,5.1,2.4
			c1.2,1.6,1.7,3.8,1.7,6.8v13.7H403.4z"/>
		<path class="st1" d="M424.3,396.8c-0.9,0.3-1.8,0.6-2.5,0.8s-1.5,0.4-2.4,0.5c-0.9,0.2-1.7,0.3-2.4,0.3c-3.2,0-5.7-1-7.4-3.1
			c-1.7-2.1-2.6-4.9-2.6-8.7c0-1.7,0.2-3.3,0.7-4.7c0.4-1.4,1.1-2.6,1.9-3.6c0.8-1,1.8-1.8,2.9-2.4c1.1-0.6,2.4-0.8,3.8-0.8
			c2.9,0,5,1.1,6.5,3.2c1.4,2.1,2.2,5,2.3,8.7l0.1,0.4H411c0.2,2.3,0.7,4.1,1.5,5.5c1,1.6,2.6,2.4,4.6,2.4c0.5,0,1.2-0.1,1.8-0.2
			c0.7-0.2,1.3-0.3,1.9-0.5c0.6-0.2,1.3-0.4,2.1-0.8l0.6,1.7L424.3,396.8z M421,384.6c0-2-0.5-3.6-1.3-4.8c-0.9-1.2-2-1.7-3.4-1.7
			c-1.6,0-2.9,0.8-3.9,2.3c-0.7,1.1-1.1,2.5-1.3,4.2H421z"/>
		<path class="st1" d="M432.5,397.9h-3.7v-22.3h3l0.4,4.4c0.6-1.7,1.3-3,2.3-3.8s2-1.2,3.1-1.2l1.5,0.2v3.5l-1.3-0.2
			c-0.8,0-1.6,0.2-2.2,0.6c-0.7,0.4-1.2,1-1.6,1.8c-0.5,0.8-0.8,1.7-1,2.8c-0.2,1.1-0.4,2.3-0.4,3.6V397.9z"/>
		<path class="st1" d="M441.8,379.8c0.4-1,0.9-1.8,1.6-2.5c0.7-0.7,1.5-1.2,2.5-1.6c0.9-0.4,2-0.6,3.2-0.6c1.7,0,3.2,0.5,4.4,1.5
			l4.9-2.8l1,2.4l-4.1,2.3c1,1.3,1.4,2.8,1.4,4.6c0,2.5-0.7,4.5-2.1,5.9c-1.4,1.4-3.3,2.2-5.8,2.2c-0.9,0-1.6-0.1-2.3-0.3
			c-0.5,0.1-0.9,0.3-1.2,0.6c-0.5,0.4-0.7,0.8-0.7,1.4c0,0.5,0.2,0.8,0.5,1.1c0.4,0.3,0.8,0.5,1.5,0.6c0.6,0.1,1.4,0.3,2.2,0.3
			c0.9,0.1,1.8,0.1,2.8,0.2c1,0.1,2,0.2,2.9,0.5c0.9,0.3,1.7,0.6,2.4,1.1c0.7,0.5,1.2,1,1.6,1.7c0.4,0.7,0.6,1.5,0.6,2.5
			c0,2.2-0.9,3.7-2.6,4.7c-1.7,0.9-4.1,1.4-7.2,1.4c-3.1,0-5.5-0.5-7.2-1.4c-1.6-1-2.5-2.4-2.5-4.4c0-1,0.4-1.9,1-2.6
			c0.7-0.7,1.5-1.3,2.6-1.8c-1.2-0.7-1.9-1.8-1.9-3.4c0-0.9,0.3-1.7,0.8-2.4c0.5-0.7,1.1-1.2,1.8-1.5c-0.1-0.1-0.2-0.2-0.3-0.3
			s-0.2-0.2-0.3-0.3c-1.5-1.6-2.2-3.5-2.2-5.7C441.2,381.9,441.4,380.8,441.8,379.8z M444.9,398.4c-0.4,0.2-0.7,0.4-1,0.7
			c-0.6,0.5-0.9,1.1-0.9,1.7c0,1,0.5,1.8,1.5,2.4c1,0.6,2.6,0.9,4.9,0.9c0.8,0,1.6-0.1,2.4-0.2c0.8-0.1,1.4-0.3,2-0.5
			c0.6-0.2,1-0.6,1.3-1c0.3-0.4,0.5-0.9,0.5-1.4c0-0.8-0.5-1.4-1.4-1.9c-0.9-0.5-2.3-0.7-4.1-0.8c-1.4,0-2.6-0.2-3.7-0.5
			C445.8,398,445.3,398.2,444.9,398.4z M445.8,379.5c-0.8,0.9-1.2,2.1-1.2,3.6c0,1.5,0.4,2.7,1.2,3.6c0.8,0.9,1.8,1.3,3.2,1.3
			c1.5,0,2.6-0.4,3.3-1.3c0.7-0.8,1.1-2.1,1.1-3.6c0-1.5-0.4-2.7-1.2-3.6c-0.8-0.9-1.8-1.4-3.1-1.4
			C447.7,378.1,446.7,378.6,445.8,379.5z"/>
		<path class="st1" d="M479,375.6l-7.4,24.5c-0.3,1.1-0.7,2.1-1.1,2.9c-0.4,0.8-0.9,1.5-1.4,2.1c-0.5,0.5-1.2,1-1.9,1.2
			c-0.7,0.3-1.6,0.4-2.7,0.4l-2.6-0.3l0.2-3.1l1.9,0.3c0.5,0,1-0.1,1.5-0.2c0.4-0.1,0.9-0.3,1.3-0.7c0.4-0.3,0.7-0.8,1.1-1.4
			c0.3-0.6,0.6-1.3,0.9-2.3l-0.3-1.2l-7.3-22.3h4.1l5.1,17.8l5.2-17.8H479z"/>
		<path class="st1" d="M492,397.9v-30h4.1v30H492z"/>
		<path class="st1" d="M516.3,397.9l-0.3,0h-2.9v-14.1c0-1.7-0.3-3.1-1-4.1c-0.7-1-1.6-1.5-2.9-1.5c-1.6,0-3,0.8-4,2.3
			c-1,1.5-1.5,3.6-1.5,6.3v11.2h-0.5l-0.3,0h-2.9v-22.3h3.6v3.9c0.7-1.6,1.6-2.7,2.8-3.4c1.1-0.7,2.4-1,3.8-1c2.3,0,4,0.8,5.1,2.4
			c1.2,1.6,1.7,3.8,1.7,6.8v13.7H516.3z"/>
		<path class="st1" d="M530.4,395.3c0.6,0,1.2-0.1,1.7-0.2s0.9-0.3,1.2-0.3v3.2c-0.1,0-0.3,0.1-0.6,0.1c-0.3,0.1-0.6,0.1-0.9,0.1
			c-0.3,0-0.7,0.1-1,0.1c-0.3,0-0.7,0-1,0c-4.3,0-6.5-2.2-6.5-6.6v-13.3h-4v-3h4v-5.3l3.7-0.9v6.2h4.9v3h-4.9v12.6
			C527.1,393.9,528.2,395.3,530.4,395.3z"/>
		<path class="st1" d="M551.9,396.8c-0.9,0.3-1.8,0.6-2.5,0.8s-1.5,0.4-2.4,0.5c-0.9,0.2-1.7,0.3-2.4,0.3c-3.2,0-5.7-1-7.4-3.1
			c-1.7-2.1-2.6-4.9-2.6-8.7c0-1.7,0.2-3.3,0.7-4.7c0.4-1.4,1.1-2.6,1.9-3.6c0.8-1,1.8-1.8,2.9-2.4c1.1-0.6,2.4-0.8,3.8-0.8
			c2.9,0,5,1.1,6.5,3.2c1.4,2.1,2.2,5,2.3,8.7l0.1,0.4h-14.1c0.2,2.3,0.7,4.1,1.5,5.5c1,1.6,2.6,2.4,4.6,2.4c0.5,0,1.2-0.1,1.8-0.2
			c0.7-0.2,1.3-0.3,1.9-0.5c0.6-0.2,1.3-0.4,2.1-0.8l0.6,1.7L551.9,396.8z M548.6,384.6c0-2-0.5-3.6-1.3-4.8c-0.9-1.2-2-1.7-3.4-1.7
			c-1.6,0-2.9,0.8-3.9,2.3c-0.7,1.1-1.1,2.5-1.3,4.2H548.6z"/>
		<path class="st1" d="M557.2,379.8c0.4-1,0.9-1.8,1.6-2.5c0.7-0.7,1.5-1.2,2.5-1.6c0.9-0.4,2-0.6,3.2-0.6c1.7,0,3.2,0.5,4.4,1.5
			l4.9-2.8l1,2.4l-4.1,2.3c1,1.3,1.4,2.8,1.4,4.6c0,2.5-0.7,4.5-2.1,5.9c-1.4,1.4-3.3,2.2-5.8,2.2c-0.9,0-1.6-0.1-2.3-0.3
			c-0.5,0.1-0.9,0.3-1.2,0.6c-0.5,0.4-0.7,0.8-0.7,1.4c0,0.5,0.2,0.8,0.5,1.1c0.4,0.3,0.8,0.5,1.5,0.6c0.6,0.1,1.4,0.3,2.2,0.3
			c0.9,0.1,1.8,0.1,2.8,0.2c1,0.1,2,0.2,2.9,0.5c0.9,0.3,1.7,0.6,2.4,1.1c0.7,0.5,1.2,1,1.6,1.7c0.4,0.7,0.6,1.5,0.6,2.5
			c0,2.2-0.9,3.7-2.6,4.7c-1.7,0.9-4.1,1.4-7.2,1.4c-3.1,0-5.5-0.5-7.2-1.4c-1.6-1-2.5-2.4-2.5-4.4c0-1,0.4-1.9,1-2.6
			c0.7-0.7,1.5-1.3,2.6-1.8c-1.2-0.7-1.9-1.8-1.9-3.4c0-0.9,0.3-1.7,0.8-2.4c0.5-0.7,1.1-1.2,1.8-1.5c-0.1-0.1-0.2-0.2-0.3-0.3
			s-0.2-0.2-0.3-0.3c-1.5-1.6-2.2-3.5-2.2-5.7C556.6,381.9,556.8,380.8,557.2,379.8z M560.4,398.4c-0.4,0.2-0.7,0.4-1,0.7
			c-0.6,0.5-0.9,1.1-0.9,1.7c0,1,0.5,1.8,1.5,2.4c1,0.6,2.6,0.9,4.9,0.9c0.8,0,1.6-0.1,2.4-0.2c0.8-0.1,1.4-0.3,2-0.5
			c0.6-0.2,1-0.6,1.3-1c0.3-0.4,0.5-0.9,0.5-1.4c0-0.8-0.5-1.4-1.4-1.9c-0.9-0.5-2.3-0.7-4.1-0.8c-1.4,0-2.6-0.2-3.7-0.5
			C561.2,398,560.8,398.2,560.4,398.4z M561.3,379.5c-0.8,0.9-1.2,2.1-1.2,3.6c0,1.5,0.4,2.7,1.2,3.6c0.8,0.9,1.8,1.3,3.2,1.3
			c1.5,0,2.6-0.4,3.3-1.3c0.7-0.8,1.1-2.1,1.1-3.6c0-1.5-0.4-2.7-1.2-3.6c-0.8-0.9-1.8-1.4-3.1-1.4
			C563.1,378.1,562.1,378.6,561.3,379.5z"/>
		<path class="st1" d="M580.7,397.9H577v-22.3h3l0.4,4.4c0.6-1.7,1.3-3,2.3-3.8c1-0.8,2-1.2,3.1-1.2l1.5,0.2v3.5l-1.3-0.2
			c-0.8,0-1.6,0.2-2.2,0.6c-0.7,0.4-1.2,1-1.6,1.8c-0.5,0.8-0.8,1.7-1,2.8c-0.2,1.1-0.4,2.3-0.4,3.6V397.9z"/>
		<path class="st1" d="M599.4,397.5c-1.2,0.6-2.3,0.9-3.5,0.9c-2.3,0-4-0.6-5.3-1.8c-1.2-1.2-1.9-2.8-1.9-4.8c0-2.3,0.7-4.1,2.1-5.3
			c1.4-1.3,3.4-2,6.1-2.2c0.4,0,0.8,0,1.2-0.1c0.4,0,0.9,0,1.3,0h2.7v-0.9c0-1.9-0.4-3.2-1.2-4c-0.8-0.8-1.9-1.2-3.4-1.2
			c-0.6,0-1.3,0.1-2.1,0.2c-0.8,0.1-1.5,0.3-2.1,0.5c-0.6,0.2-1.4,0.4-2.3,0.7l-0.6-2.6c0.8-0.3,1.6-0.6,2.3-0.8
			c0.7-0.2,1.5-0.4,2.5-0.6c0.9-0.2,1.9-0.3,3-0.3c2.8,0,4.8,0.7,6,2.2c1.2,1.4,1.8,3.7,1.8,6.8v10.2c0,1,0,1.8,0.2,2.5
			c0.1,0.7,0.2,1.1,0.2,1.1h-3.6l-0.2-3.5C601.5,395.9,600.5,396.9,599.4,397.5z M602.2,387l-2.2-0.1c-2.5-0.1-4.3,0.3-5.5,1.2
			c-1.2,0.9-1.8,2-1.8,3.5c0,1,0.3,1.9,1,2.6c0.7,0.7,1.6,1.1,2.8,1.1c0.9,0,1.6-0.2,2.3-0.5c0.7-0.4,1.3-0.9,1.8-1.5
			c0.5-0.6,0.9-1.4,1.1-2.2c0.3-0.8,0.4-1.7,0.4-2.6V387z"/>
		<path class="st1" d="M619,395.3c0.6,0,1.2-0.1,1.7-0.2s0.9-0.3,1.2-0.3v3.2c-0.1,0-0.3,0.1-0.6,0.1c-0.3,0.1-0.6,0.1-0.9,0.1
			c-0.3,0-0.7,0.1-1,0.1c-0.3,0-0.7,0-1,0c-4.3,0-6.5-2.2-6.5-6.6v-13.3h-4v-3h4v-5.3l3.7-0.9v6.2h4.9v3h-4.9v12.6
			C615.7,393.9,616.8,395.3,619,395.3z"/>
		<path class="st1" d="M640.5,396.8c-0.9,0.3-1.8,0.6-2.5,0.8s-1.5,0.4-2.4,0.5c-0.9,0.2-1.7,0.3-2.4,0.3c-3.2,0-5.7-1-7.4-3.1
			c-1.7-2.1-2.6-4.9-2.6-8.7c0-1.7,0.2-3.3,0.7-4.7c0.4-1.4,1.1-2.6,1.9-3.6c0.8-1,1.8-1.8,2.9-2.4c1.1-0.6,2.4-0.8,3.8-0.8
			c2.9,0,5,1.1,6.5,3.2c1.4,2.1,2.2,5,2.3,8.7l0.1,0.4h-14.1c0.2,2.3,0.7,4.1,1.5,5.5c1,1.6,2.6,2.4,4.6,2.4c0.5,0,1.2-0.1,1.8-0.2
			c0.7-0.2,1.3-0.3,1.9-0.5c0.6-0.2,1.3-0.4,2.1-0.8l0.6,1.7L640.5,396.8z M637.2,384.6c0-2-0.5-3.6-1.3-4.8c-0.9-1.2-2-1.7-3.4-1.7
			c-1.6,0-2.9,0.8-3.9,2.3c-0.7,1.1-1.1,2.5-1.3,4.2H637.2z"/>
		<path class="st1" d="M656,397.3c-1.1,0.7-2.3,1-3.5,1c-1.3,0-2.5-0.3-3.5-0.8c-1-0.6-1.9-1.4-2.6-2.4c-0.7-1.1-1.2-2.3-1.6-3.8
			c-0.4-1.5-0.6-3.1-0.6-4.9c0-1.7,0.2-3.2,0.6-4.6c0.4-1.4,0.9-2.6,1.7-3.6c0.7-1,1.6-1.8,2.6-2.3c1-0.5,2.2-0.8,3.4-0.8
			c1.1,0,2.2,0.2,3.2,0.7c1,0.5,2,1.4,2.9,2.8v-12h3.8v31.2h-3.1l-0.4-3.6C658.1,395.6,657.2,396.6,656,397.3z M658.6,385.7
			c0-1.2-0.1-2.2-0.4-3.2c-0.3-0.9-0.6-1.7-1.1-2.4c-0.5-0.6-1-1.1-1.7-1.5c-0.6-0.3-1.3-0.5-2-0.5c-1.6,0-2.8,0.8-3.7,2.3
			c-0.9,1.5-1.3,3.6-1.3,6.1c0,1.3,0.1,2.5,0.3,3.6c0.2,1.1,0.6,2,1,2.8c0.4,0.8,0.9,1.4,1.5,1.8c0.6,0.4,1.3,0.7,2,0.7
			c0.8,0,1.5-0.2,2.2-0.6c0.7-0.4,1.2-1,1.7-1.7c0.5-0.7,0.9-1.5,1.1-2.5c0.3-0.9,0.4-1.9,0.4-3V385.7z"/>
		<path class="st1" d="M694,393.3c-0.5,1.1-1.2,2-2,2.7c-0.9,0.8-1.9,1.3-3.2,1.7c-1.2,0.4-2.6,0.6-4.1,0.6c-1,0-1.9-0.2-2.9-0.5
			c-1-0.3-1.9-0.7-2.7-1.1c-0.8-0.4-1.8-0.9-2.8-1.6l1.7-2.9c0.8,0.5,1.5,1,2.1,1.3c0.6,0.3,1.3,0.6,2.1,0.9
			c0.8,0.3,1.6,0.4,2.5,0.4c0.8,0,1.6-0.1,2.3-0.4c0.7-0.2,1.3-0.6,1.8-1c0.5-0.5,0.9-1,1.2-1.6c0.3-0.6,0.4-1.3,0.4-1.9
			c0-0.7-0.1-1.3-0.3-1.9c-0.2-0.5-0.5-1-0.9-1.5c-0.4-0.5-1-0.9-1.8-1.3c-0.8-0.4-1.7-0.8-2.8-1.1c-2.5-0.8-4.5-1.9-5.9-3.2
			c-1.4-1.3-2-3.1-2-5.5c0-2.5,0.8-4.5,2.4-5.9c1.6-1.4,3.8-2.2,6.6-2.2c0.8,0,1.7,0.1,2.6,0.4c0.9,0.3,1.7,0.6,2.5,0.9
			c0.8,0.3,1.6,0.8,2.6,1.3l-1.8,3c-0.7-0.5-1.3-0.8-1.8-1.1s-1.1-0.5-1.8-0.7c-0.7-0.2-1.3-0.3-1.9-0.3c-1.6,0-2.8,0.4-3.8,1.1
			c-0.9,0.7-1.4,1.8-1.4,3.2c0,0.6,0.1,1.1,0.2,1.5c0.1,0.4,0.4,0.9,0.8,1.3c0.4,0.4,1.1,0.8,1.9,1.2c0.8,0.4,1.9,0.9,3.3,1.3
			c1.4,0.5,2.6,1,3.6,1.6c1,0.6,1.7,1.2,2.3,2c0.6,0.7,1,1.6,1.3,2.5c0.3,0.9,0.4,2,0.4,3.2C694.7,391.1,694.5,392.3,694,393.3z"/>
		<path class="st1" d="M715.1,396.8c-0.9,0.3-1.8,0.6-2.5,0.8c-0.7,0.2-1.5,0.4-2.4,0.5c-0.9,0.2-1.7,0.3-2.4,0.3
			c-3.2,0-5.7-1-7.4-3.1c-1.7-2.1-2.6-4.9-2.6-8.7c0-1.7,0.2-3.3,0.7-4.7c0.4-1.4,1.1-2.6,1.9-3.6c0.8-1,1.8-1.8,2.9-2.4
			c1.1-0.6,2.4-0.8,3.8-0.8c2.9,0,5,1.1,6.5,3.2c1.4,2.1,2.2,5,2.3,8.7l0.1,0.4h-14.1c0.2,2.3,0.7,4.1,1.5,5.5
			c1,1.6,2.6,2.4,4.6,2.4c0.5,0,1.2-0.1,1.8-0.2c0.7-0.2,1.3-0.3,1.9-0.5c0.6-0.2,1.3-0.4,2.1-0.8l0.6,1.7L715.1,396.8z
			 M711.8,384.6c0-2-0.5-3.6-1.3-4.8c-0.9-1.2-2-1.7-3.4-1.7c-1.6,0-2.9,0.8-3.9,2.3c-0.7,1.1-1.1,2.5-1.3,4.2H711.8z"/>
		<path class="st1" d="M723.2,397.9h-3.7v-22.3h3l0.4,4.4c0.6-1.7,1.3-3,2.3-3.8c1-0.8,2-1.2,3.1-1.2l1.5,0.2v3.5l-1.3-0.2
			c-0.8,0-1.6,0.2-2.2,0.6c-0.7,0.4-1.2,1-1.6,1.8c-0.5,0.8-0.8,1.7-1,2.8c-0.2,1.1-0.4,2.3-0.4,3.6V397.9z"/>
		<path class="st1" d="M741.5,397.9h-4l-7.1-22.3h4.2l5.2,18.3l5.2-18.3h3.6L741.5,397.9z"/>
		<path class="st1" d="M751.4,369c0-0.6,0.2-1.2,0.7-1.6c0.5-0.4,1-0.6,1.6-0.6c0.6,0,1.2,0.2,1.6,0.6c0.5,0.5,0.7,1,0.7,1.6
			s-0.2,1.2-0.7,1.6c-0.5,0.4-1,0.6-1.6,0.6c-0.6,0-1.1-0.2-1.6-0.6C751.6,370.2,751.4,369.6,751.4,369z M753.7,397.9
			c-0.6,0-1.2,0-1.9,0v-22.3h3.7v22.4C755,397.9,754.3,397.9,753.7,397.9z"/>
		<path class="st1" d="M774.4,394.4l0.8,1.1c-0.6,0.6-1.2,1.1-1.7,1.4c-0.5,0.3-1.1,0.7-1.8,1c-0.7,0.3-1.4,0.5-2.1,0.5
			c-1.4,0-2.7-0.3-3.8-0.9c-1.2-0.6-2.2-1.4-3-2.4s-1.5-2.3-2-3.7c-0.5-1.4-0.7-3-0.7-4.7c0-1.7,0.2-3.3,0.7-4.7
			c0.4-1.4,1.1-2.6,1.9-3.7s1.8-1.8,2.9-2.4c1.1-0.6,2.4-0.9,3.9-0.9c0.6,0,1.3,0.1,1.9,0.4c0.7,0.3,1.3,0.6,1.8,0.9
			c0.5,0.3,1.2,0.8,1.8,1.3l-1.6,2.1c-0.1,0-0.3-0.2-0.6-0.4c-0.4-0.2-0.9-0.5-1.5-0.8c-0.6-0.3-1.2-0.4-1.8-0.4
			c-0.8,0-1.6,0.2-2.2,0.6c-0.7,0.4-1.3,1-1.7,1.8c-0.5,0.8-0.9,1.7-1.1,2.7c-0.3,1-0.4,2.1-0.4,3.4c0,2.6,0.5,4.7,1.5,6.3
			c1,1.6,2.3,2.4,4.1,2.4c0.5,0,1-0.1,1.5-0.3c0.5-0.2,0.9-0.4,1.3-0.6c0.4-0.2,0.8-0.5,1.2-1L774.4,394.4z"/>
		<path class="st1" d="M794.9,396.8c-0.9,0.3-1.8,0.6-2.5,0.8c-0.7,0.2-1.5,0.4-2.4,0.5c-0.9,0.2-1.7,0.3-2.4,0.3
			c-3.2,0-5.7-1-7.4-3.1c-1.7-2.1-2.6-4.9-2.6-8.7c0-1.7,0.2-3.3,0.7-4.7c0.4-1.4,1.1-2.6,1.9-3.6c0.8-1,1.8-1.8,2.9-2.4
			c1.1-0.6,2.4-0.8,3.8-0.8c2.9,0,5,1.1,6.5,3.2c1.4,2.1,2.2,5,2.3,8.7l0.1,0.4h-14.1c0.2,2.3,0.7,4.1,1.5,5.5
			c1,1.6,2.6,2.4,4.6,2.4c0.5,0,1.2-0.1,1.8-0.2c0.7-0.2,1.3-0.3,1.9-0.5c0.6-0.2,1.3-0.4,2.1-0.8l0.6,1.7L794.9,396.8z
			 M791.6,384.6c0-2-0.5-3.6-1.3-4.8c-0.9-1.2-2-1.7-3.4-1.7c-1.6,0-2.9,0.8-3.9,2.3c-0.7,1.1-1.1,2.5-1.3,4.2H791.6z"/>
		<path class="st1" d="M811.1,396.5c-1.4,1.2-3.3,1.9-5.7,1.9c-0.7,0-1.4-0.2-2.3-0.5c-0.8-0.4-1.6-0.8-2.3-1.2
			c-0.7-0.4-1.5-1-2.5-1.8l1.6-2.3c0.6,0.6,1.2,1,1.7,1.4c0.5,0.3,1.1,0.6,1.7,0.9c0.6,0.3,1.2,0.4,1.8,0.4c1.2,0,2.2-0.3,2.9-0.9
			s1.1-1.4,1.1-2.5c0-1-0.4-1.8-1.3-2.4s-1.9-1.1-3.2-1.4c-0.9-0.2-1.7-0.5-2.4-0.8c-0.7-0.3-1.4-0.8-1.9-1.3
			c-0.5-0.5-0.9-1.1-1.2-1.8c-0.3-0.7-0.5-1.5-0.5-2.5c0-1,0.2-1.9,0.5-2.7c0.4-0.8,0.9-1.5,1.5-2c0.7-0.6,1.4-1,2.3-1.3
			c0.9-0.3,1.9-0.4,3-0.4c0.6,0,1.3,0.2,2,0.5c0.7,0.3,1.4,0.7,2,1c0.6,0.4,1.3,0.9,2.2,1.5l-1.6,2.2c-0.6-0.4-1.1-0.8-1.5-1.1
			c-0.4-0.3-0.9-0.5-1.4-0.7c-0.5-0.2-1-0.3-1.4-0.3c-1.2,0-2.1,0.3-2.7,0.8c-0.6,0.5-0.9,1.3-0.9,2.2s0.4,1.6,1.1,2.2
			c0.7,0.6,1.9,1.1,3.7,1.6c2,0.6,3.5,1.4,4.4,2.4c0.9,1,1.4,2.4,1.4,4.2C813.3,393.6,812.6,395.3,811.1,396.5z"/>
		<path class="st1" d="M831.5,394.4h11.8l0,3.5h-15.9v-30h4.1V394.4z"/>
		<path class="st1" d="M844.8,369c0-0.6,0.2-1.2,0.7-1.6c0.5-0.4,1-0.6,1.6-0.6c0.6,0,1.2,0.2,1.6,0.6c0.5,0.5,0.7,1,0.7,1.6
			s-0.2,1.2-0.7,1.6c-0.5,0.4-1,0.6-1.6,0.6c-0.6,0-1.1-0.2-1.6-0.6C845,370.2,844.8,369.6,844.8,369z M847.1,397.9
			c-0.6,0-1.2,0-1.9,0v-22.3h3.7v22.4C848.4,397.9,847.8,397.9,847.1,397.9z"/>
		<path class="st1" d="M880.1,397.9h-3.7v-13.7c0-1.9-0.3-3.4-0.8-4.4s-1.4-1.6-2.6-1.6c-1.5,0-2.6,0.7-3.5,2.1
			c-0.8,1.4-1.3,3.5-1.3,6.1v11.5h-3.7v-13.7c0-1.9-0.3-3.4-0.8-4.4c-0.5-1-1.4-1.6-2.6-1.6c-1.5,0-2.6,0.7-3.5,2.2
			c-0.9,1.5-1.3,3.5-1.3,6.1v11.4h-3.7v-22.3h3.6v3.7c0.6-1.5,1.4-2.5,2.4-3.2c1-0.7,2.1-1,3.4-1c1.5,0,2.7,0.4,3.7,1.3
			c1,0.8,1.6,2,1.9,3.5c0.3-0.6,0.6-1.2,1-1.8c0.4-0.6,0.9-1.1,1.4-1.5c0.5-0.4,1.1-0.8,1.8-1c0.6-0.2,1.4-0.4,2.1-0.4
			c2.1,0,3.6,0.8,4.7,2.3c1,1.5,1.5,3.6,1.5,6.3V397.9z"/>
		<path class="st1" d="M883.6,369c0-0.6,0.2-1.2,0.7-1.6c0.5-0.4,1-0.6,1.6-0.6c0.6,0,1.2,0.2,1.6,0.6c0.5,0.5,0.7,1,0.7,1.6
			s-0.2,1.2-0.7,1.6c-0.5,0.4-1,0.6-1.6,0.6c-0.6,0-1.1-0.2-1.6-0.6C883.8,370.2,883.6,369.6,883.6,369z M885.9,397.9
			c-0.6,0-1.2,0-1.9,0v-22.3h3.7v22.4C887.1,397.9,886.5,397.9,885.9,397.9z"/>
		<path class="st1" d="M902,395.3c0.6,0,1.2-0.1,1.7-0.2c0.5-0.1,0.9-0.3,1.2-0.3v3.2c-0.1,0-0.3,0.1-0.6,0.1
			c-0.3,0.1-0.6,0.1-0.9,0.1c-0.3,0-0.7,0.1-1,0.1c-0.3,0-0.7,0-1,0c-4.3,0-6.5-2.2-6.5-6.6v-13.3h-4v-3h4v-5.3l3.7-0.9v6.2h4.9v3
			h-4.9v12.6C898.7,393.9,899.8,395.3,902,395.3z"/>
		<path class="st1" d="M923.5,396.8c-0.9,0.3-1.8,0.6-2.5,0.8c-0.7,0.2-1.5,0.4-2.4,0.5c-0.9,0.2-1.7,0.3-2.4,0.3
			c-3.2,0-5.7-1-7.4-3.1c-1.7-2.1-2.6-4.9-2.6-8.7c0-1.7,0.2-3.3,0.7-4.7c0.4-1.4,1.1-2.6,1.9-3.6c0.8-1,1.8-1.8,2.9-2.4
			s2.4-0.8,3.8-0.8c2.9,0,5,1.1,6.5,3.2c1.4,2.1,2.2,5,2.3,8.7l0.1,0.4h-14.1c0.2,2.3,0.7,4.1,1.5,5.5c1,1.6,2.6,2.4,4.6,2.4
			c0.5,0,1.2-0.1,1.8-0.2c0.7-0.2,1.3-0.3,1.9-0.5c0.6-0.2,1.3-0.4,2.1-0.8l0.6,1.7L923.5,396.8z M920.2,384.6c0-2-0.5-3.6-1.3-4.8
			c-0.9-1.2-2-1.7-3.4-1.7c-1.6,0-2.9,0.8-3.9,2.3c-0.7,1.1-1.1,2.5-1.3,4.2H920.2z"/>
		<path class="st1" d="M939,397.3c-1.1,0.7-2.3,1-3.5,1c-1.3,0-2.5-0.3-3.5-0.8c-1-0.6-1.9-1.4-2.6-2.4c-0.7-1.1-1.2-2.3-1.6-3.8
			c-0.4-1.5-0.6-3.1-0.6-4.9c0-1.7,0.2-3.2,0.6-4.6c0.4-1.4,0.9-2.6,1.7-3.6c0.7-1,1.6-1.8,2.6-2.3c1-0.5,2.2-0.8,3.4-0.8
			c1.1,0,2.2,0.2,3.2,0.7c1,0.5,2,1.4,2.9,2.8v-12h3.8v31.2h-3.1l-0.4-3.6C941.1,395.6,940.2,396.6,939,397.3z M941.5,385.7
			c0-1.2-0.1-2.2-0.4-3.2c-0.3-0.9-0.6-1.7-1.1-2.4c-0.5-0.6-1-1.1-1.7-1.5c-0.6-0.3-1.3-0.5-2-0.5c-1.6,0-2.8,0.8-3.7,2.3
			c-0.9,1.5-1.3,3.6-1.3,6.1c0,1.3,0.1,2.5,0.3,3.6c0.2,1.1,0.6,2,1,2.8c0.4,0.8,0.9,1.4,1.5,1.8c0.6,0.4,1.3,0.7,2,0.7
			c0.8,0,1.5-0.2,2.2-0.6c0.7-0.4,1.2-1,1.7-1.7c0.5-0.7,0.9-1.5,1.1-2.5c0.3-0.9,0.4-1.9,0.4-3V385.7z"/>
	</g>
	<g>
		<g>
			<path class="st0" d="M245.8,253.7l-1.9-2.2c-2.1-2.5-4.1-4.8-5.7-6.8c-0.3-0.5-0.7-0.7-0.9-0.9c-1.1-0.9-2.5-1.3-3.9-1.2
				c-1.4,0.2-2.7,0.8-3.7,2c-1.7,2-3.7,4.4-5.9,7l-1.8,2.1c-13.5,15.6-32,37.1-32,55.7c0,11.7,4.6,22.7,12.9,31
				c8.4,8.3,19.4,12.8,31,12.8c11.7,0,22.7-4.6,31-12.8c8.3-8.3,12.8-19.3,12.8-31C277.9,290.8,259.4,269.3,245.8,253.7z
				 M257.4,332.9c-6.3,6.3-14.7,9.8-23.5,9.8c-8.8,0-17.2-3.4-23.5-9.7c-6.3-6.3-9.7-14.6-9.7-23.5c0-14.7,17.7-35.3,29.5-48.9
				l2.3-2.8c0.5-0.6,0.9-1.1,1.4-1.7c1.2,1.4,2.5,2.9,3.9,4.5c12.4,14.3,29.3,33.9,29.3,48.7C267.2,318.1,263.7,326.5,257.4,332.9z"
				/>
		</g>
		<g>
			<path class="st0" d="M218.3,306.7c0-2.9-2.4-5.3-5.3-5.3c-2.9,0-5.3,2.4-5.3,5.3c0,7.9,3.1,15.5,8.8,21.3
				c5.5,5.5,13.2,8.7,21.2,8.7c2.9,0,5.3-2.4,5.3-5.3c0-2.9-2.4-5.3-5.3-5.3c-5.2,0-10.1-2-13.8-5.7
				C220.3,316.8,218.3,311.9,218.3,306.7z"/>
		</g>
		<g>
			<path class="st0" d="M147.7,281.4c0-47.6,38.7-86.3,86.3-86.3c22.1,0,42.4,8.4,57.7,22.2l8-10.3c-17.5-15.4-40.5-24.9-65.7-24.9
				c-54.7,0-99.2,44.5-99.2,99.2v33.1c0,27,10.8,51.5,28.3,69.3l8-10.4c-14.5-15.4-23.3-36.1-23.3-58.9V281.4z"/>
		</g>
		<g>
			<path class="st0" d="M308.8,216.3l-8.1,10.5c12.2,14.9,19.5,33.9,19.5,54.6v33.1c0,47.6-38.7,86.3-86.3,86.3
				c-20.1,0-38.7-6.9-53.4-18.6l-7.9,10.3c16.9,13.3,38.2,21.3,61.3,21.3c54.7,0,99.3-44.5,99.3-99.3v-33.1
				C333.2,256.5,324,233.7,308.8,216.3z"/>
		</g>
		<g>
			<path class="st0" d="M184.5,246.4l-1-1.3l-6.1-7.9l-1-1.3c-11.9,13.8-18.5,31.4-18.5,49.6v24.8c0,42,34.1,76.1,76.1,76.1
				c17.2,0,33.4-5.6,46.9-16.3l-1-1.3l0,0l-6-7.7c0,0,0,0-0.1,0l-1-1.3c-11.2,8.8-24.7,13.5-39,13.5c-34.8,0-63.1-28.3-63.1-63.1
				v-24.8C170.9,271.4,175.7,257.5,184.5,246.4z"/>
		</g>
		<g>
			<path class="st0" d="M287.2,362.4l1,1.3l0.2-0.2c14-14.3,21.7-33.2,21.7-53.1v-24.8c0-41.9-34.1-76-76-76
				c-18.5,0-36.4,6.8-50.3,19l-0.4,0.4l8,10.3l0.6-0.5c11.6-10.4,26.5-16.2,42.2-16.2c34.7,0,63,28.3,63,63.1v24.8
				c0,16-6,31.2-16.9,43l6.1,7.9L287.2,362.4z"/>
		</g>
	</g>
</g>
</svg>
